<mxfile host="app.diagrams.net" agent="Mozilla/5.0 (Windows NT 10.0; Win64; x64) AppleWebKit/537.36 (KHTML, like Gecko) Chrome/131.0.0.0 Safari/537.36" version="25.0.3">
  <diagram name="Page-1" id="dU_e7VPEd_71yUoCDEky">
    <mxGraphModel dx="1078" dy="479" grid="1" gridSize="10" guides="1" tooltips="1" connect="1" arrows="1" fold="1" page="1" pageScale="1" pageWidth="827" pageHeight="1169" math="0" shadow="0">
      <root>
        <mxCell id="0" />
        <mxCell id="1" parent="0" />
        <mxCell id="u6Nlhj0dFVYCVf8Xmznz-1" value="ALPHA_MGMT-h&lt;div&gt;Optus Evolve IPVPN&lt;/div&gt;" style="ellipse;whiteSpace=wrap;html=1;" vertex="1" parent="1">
          <mxGeometry x="260" y="540" width="230" height="140" as="geometry" />
        </mxCell>
        <mxCell id="u6Nlhj0dFVYCVf8Xmznz-2" value="&lt;b&gt;AWS Services Australia&amp;nbsp;&lt;/b&gt;&lt;div&gt;&lt;b&gt;LZ (DEV)&lt;/b&gt;&lt;/div&gt;" style="rounded=0;whiteSpace=wrap;html=1;direction=west;" vertex="1" parent="1">
          <mxGeometry x="50" y="290" width="660" height="140" as="geometry" />
        </mxCell>
        <mxCell id="u6Nlhj0dFVYCVf8Xmznz-3" value="SY3&lt;br&gt;&lt;font color=&quot;#ff0000&quot;&gt;4.1.55.0/25&lt;/font&gt;" style="rounded=0;whiteSpace=wrap;html=1;direction=west;" vertex="1" parent="1">
          <mxGeometry x="50" y="831" width="270" height="140" as="geometry" />
        </mxCell>
        <mxCell id="u6Nlhj0dFVYCVf8Xmznz-4" value="ME1&lt;div&gt;&lt;font color=&quot;#ff3333&quot;&gt;4.1.55.128/25&lt;/font&gt;&lt;/div&gt;" style="rounded=0;whiteSpace=wrap;html=1;direction=west;" vertex="1" parent="1">
          <mxGeometry x="458" y="830" width="270" height="140" as="geometry" />
        </mxCell>
        <mxCell id="u6Nlhj0dFVYCVf8Xmznz-5" value="" style="endArrow=none;html=1;rounded=0;entryX=0.083;entryY=0.8;entryDx=0;entryDy=0;entryPerimeter=0;" edge="1" parent="1" target="u6Nlhj0dFVYCVf8Xmznz-1">
          <mxGeometry width="50" height="50" relative="1" as="geometry">
            <mxPoint x="130" y="830" as="sourcePoint" />
            <mxPoint x="180" y="780" as="targetPoint" />
          </mxGeometry>
        </mxCell>
        <mxCell id="u6Nlhj0dFVYCVf8Xmznz-6" value="" style="endArrow=none;html=1;rounded=0;entryX=0.364;entryY=0.989;entryDx=0;entryDy=0;entryPerimeter=0;" edge="1" parent="1" target="u6Nlhj0dFVYCVf8Xmznz-1">
          <mxGeometry width="50" height="50" relative="1" as="geometry">
            <mxPoint x="220" y="830" as="sourcePoint" />
            <mxPoint x="374" y="648" as="targetPoint" />
          </mxGeometry>
        </mxCell>
        <mxCell id="u6Nlhj0dFVYCVf8Xmznz-7" value="" style="endArrow=none;html=1;rounded=0;entryX=0.665;entryY=0.972;entryDx=0;entryDy=0;entryPerimeter=0;exitX=0.75;exitY=1;exitDx=0;exitDy=0;" edge="1" parent="1" source="u6Nlhj0dFVYCVf8Xmznz-4" target="u6Nlhj0dFVYCVf8Xmznz-1">
          <mxGeometry width="50" height="50" relative="1" as="geometry">
            <mxPoint x="487.5" y="850" as="sourcePoint" />
            <mxPoint x="414" y="680" as="targetPoint" />
          </mxGeometry>
        </mxCell>
        <mxCell id="u6Nlhj0dFVYCVf8Xmznz-8" value="" style="endArrow=none;html=1;rounded=0;entryX=0.972;entryY=0.649;entryDx=0;entryDy=0;entryPerimeter=0;exitX=0.5;exitY=0;exitDx=0;exitDy=0;" edge="1" parent="1" source="u6Nlhj0dFVYCVf8Xmznz-19" target="u6Nlhj0dFVYCVf8Xmznz-1">
          <mxGeometry width="50" height="50" relative="1" as="geometry">
            <mxPoint x="684" y="840" as="sourcePoint" />
            <mxPoint x="610" y="670" as="targetPoint" />
          </mxGeometry>
        </mxCell>
        <mxCell id="u6Nlhj0dFVYCVf8Xmznz-11" value="" style="endArrow=none;html=1;rounded=0;entryX=-0.02;entryY=0.616;entryDx=0;entryDy=0;entryPerimeter=0;exitX=0.48;exitY=0.996;exitDx=0;exitDy=0;exitPerimeter=0;" edge="1" parent="1" source="u6Nlhj0dFVYCVf8Xmznz-50">
          <mxGeometry width="50" height="50" relative="1" as="geometry">
            <mxPoint x="286" y="285" as="sourcePoint" />
            <mxPoint x="444" y="127" as="targetPoint" />
          </mxGeometry>
        </mxCell>
        <mxCell id="u6Nlhj0dFVYCVf8Xmznz-12" value="" style="endArrow=none;html=1;rounded=0;entryX=0.703;entryY=0.844;entryDx=0;entryDy=0;entryPerimeter=0;exitX=0.038;exitY=0.272;exitDx=0;exitDy=0;exitPerimeter=0;" edge="1" parent="1" source="u6Nlhj0dFVYCVf8Xmznz-1" target="u6Nlhj0dFVYCVf8Xmznz-22">
          <mxGeometry width="50" height="50" relative="1" as="geometry">
            <mxPoint x="110" y="540" as="sourcePoint" />
            <mxPoint x="268" y="382" as="targetPoint" />
          </mxGeometry>
        </mxCell>
        <mxCell id="u6Nlhj0dFVYCVf8Xmznz-14" value="&lt;b&gt;Remote Ribbon Access:&lt;/b&gt;&lt;div&gt;&lt;br&gt;&lt;/div&gt;&lt;div&gt;&lt;b&gt;BMC&lt;/b&gt;:&lt;/div&gt;&lt;div&gt;TCP 22&lt;/div&gt;&lt;div&gt;TCP 443&lt;/div&gt;&lt;div&gt;TCP 5120&lt;/div&gt;&lt;div&gt;TCP 7578&lt;/div&gt;&lt;div&gt;&lt;br&gt;&lt;/div&gt;&lt;div&gt;&lt;b&gt;MGT&lt;/b&gt;:&lt;/div&gt;&lt;div&gt;TCP 22&lt;/div&gt;&lt;div&gt;TCP 2024&lt;/div&gt;&lt;div&gt;TCP 443&lt;/div&gt;&lt;div&gt;TCP 444&lt;/div&gt;&lt;div&gt;&lt;br&gt;&lt;/div&gt;&lt;div&gt;&lt;br&gt;&lt;/div&gt;" style="text;strokeColor=none;align=center;fillColor=none;html=1;verticalAlign=middle;whiteSpace=wrap;rounded=0;" vertex="1" parent="1">
          <mxGeometry x="667" y="70" width="140" height="160" as="geometry" />
        </mxCell>
        <mxCell id="u6Nlhj0dFVYCVf8Xmznz-15" value="m-sig-nsw-sy3services-r01" style="ellipse;whiteSpace=wrap;html=1;" vertex="1" parent="1">
          <mxGeometry x="100" y="800" width="70" height="50" as="geometry" />
        </mxCell>
        <mxCell id="u6Nlhj0dFVYCVf8Xmznz-16" value="m-sig-nsw-sy3services-r02" style="ellipse;whiteSpace=wrap;html=1;" vertex="1" parent="1">
          <mxGeometry x="190" y="800" width="70" height="50" as="geometry" />
        </mxCell>
        <mxCell id="u6Nlhj0dFVYCVf8Xmznz-17" value="m-sig-VIC-ME1services-r01" style="ellipse;whiteSpace=wrap;html=1;" vertex="1" parent="1">
          <mxGeometry x="490" y="800" width="70" height="50" as="geometry" />
        </mxCell>
        <mxCell id="u6Nlhj0dFVYCVf8Xmznz-18" value="" style="endArrow=none;html=1;rounded=0;entryX=0.946;entryY=0.725;entryDx=0;entryDy=0;entryPerimeter=0;exitX=0.337;exitY=1.015;exitDx=0;exitDy=0;exitPerimeter=0;" edge="1" parent="1" source="u6Nlhj0dFVYCVf8Xmznz-4" target="u6Nlhj0dFVYCVf8Xmznz-19">
          <mxGeometry width="50" height="50" relative="1" as="geometry">
            <mxPoint x="637" y="828" as="sourcePoint" />
            <mxPoint x="478" y="642" as="targetPoint" />
          </mxGeometry>
        </mxCell>
        <mxCell id="u6Nlhj0dFVYCVf8Xmznz-19" value="m-sig-VIC-ME1services-r02" style="ellipse;whiteSpace=wrap;html=1;" vertex="1" parent="1">
          <mxGeometry x="597" y="800" width="70" height="50" as="geometry" />
        </mxCell>
        <mxCell id="u6Nlhj0dFVYCVf8Xmznz-22" value="AWS VPN&lt;div&gt;Connec&lt;/div&gt;" style="ellipse;whiteSpace=wrap;html=1;" vertex="1" parent="1">
          <mxGeometry x="90" y="408" width="70" height="50" as="geometry" />
        </mxCell>
        <mxCell id="u6Nlhj0dFVYCVf8Xmznz-24" value="Ribbon SBC&lt;div&gt;MGT&lt;/div&gt;&lt;div&gt;.10&lt;/div&gt;" style="rounded=0;whiteSpace=wrap;html=1;direction=west;" vertex="1" parent="1">
          <mxGeometry x="70" y="910" width="70" height="50" as="geometry" />
        </mxCell>
        <mxCell id="u6Nlhj0dFVYCVf8Xmznz-25" value="Ribbon SBC&lt;div&gt;BMC&lt;/div&gt;&lt;div&gt;.11&lt;/div&gt;" style="rounded=0;whiteSpace=wrap;html=1;direction=west;" vertex="1" parent="1">
          <mxGeometry x="240" y="912" width="70" height="50" as="geometry" />
        </mxCell>
        <mxCell id="u6Nlhj0dFVYCVf8Xmznz-26" value="Ribbon SBC&lt;div&gt;MGT&lt;/div&gt;&lt;div&gt;.138&lt;/div&gt;" style="rounded=0;whiteSpace=wrap;html=1;direction=west;" vertex="1" parent="1">
          <mxGeometry x="470" y="912" width="70" height="50" as="geometry" />
        </mxCell>
        <mxCell id="u6Nlhj0dFVYCVf8Xmznz-27" value="Ribbon SBC&lt;div&gt;BMC&lt;/div&gt;&lt;div&gt;.139&lt;/div&gt;" style="rounded=0;whiteSpace=wrap;html=1;direction=west;" vertex="1" parent="1">
          <mxGeometry x="645" y="912" width="70" height="50" as="geometry" />
        </mxCell>
        <mxCell id="u6Nlhj0dFVYCVf8Xmznz-28" value="m-obemc-vic-sun-ext-r02" style="ellipse;whiteSpace=wrap;html=1;" vertex="1" parent="1">
          <mxGeometry x="570" y="400" width="70" height="50" as="geometry" />
        </mxCell>
        <mxCell id="u6Nlhj0dFVYCVf8Xmznz-30" value="" style="endArrow=none;html=1;rounded=0;entryX=0.67;entryY=0.967;entryDx=0;entryDy=0;entryPerimeter=0;exitX=0.264;exitY=0.07;exitDx=0;exitDy=0;exitPerimeter=0;" edge="1" parent="1" source="u6Nlhj0dFVYCVf8Xmznz-1" target="u6Nlhj0dFVYCVf8Xmznz-28">
          <mxGeometry width="50" height="50" relative="1" as="geometry">
            <mxPoint x="279" y="588" as="sourcePoint" />
            <mxPoint x="149" y="462" as="targetPoint" />
          </mxGeometry>
        </mxCell>
        <mxCell id="u6Nlhj0dFVYCVf8Xmznz-33" value="" style="endArrow=classic;html=1;rounded=0;strokeColor=#FF3333;" edge="1" parent="1">
          <mxGeometry width="50" height="50" relative="1" as="geometry">
            <mxPoint x="273" y="812" as="sourcePoint" />
            <mxPoint x="373" y="692" as="targetPoint" />
          </mxGeometry>
        </mxCell>
        <mxCell id="u6Nlhj0dFVYCVf8Xmznz-34" value="4.1.55.0/24&lt;div&gt;4.1.55.2/32&lt;/div&gt;" style="edgeLabel;html=1;align=center;verticalAlign=middle;resizable=0;points=[];strokeColor=#FF3333;" vertex="1" connectable="0" parent="u6Nlhj0dFVYCVf8Xmznz-33">
          <mxGeometry x="-0.4032" y="2" relative="1" as="geometry">
            <mxPoint x="1" y="1" as="offset" />
          </mxGeometry>
        </mxCell>
        <mxCell id="u6Nlhj0dFVYCVf8Xmznz-35" value="" style="endArrow=classic;html=1;rounded=0;strokeColor=#FF3333;" edge="1" parent="1">
          <mxGeometry width="50" height="50" relative="1" as="geometry">
            <mxPoint x="130.5" y="772" as="sourcePoint" />
            <mxPoint x="248" y="642" as="targetPoint" />
          </mxGeometry>
        </mxCell>
        <mxCell id="u6Nlhj0dFVYCVf8Xmznz-36" value="4.1.55.0/24&lt;div&gt;4.1.55.1/32&lt;/div&gt;" style="edgeLabel;html=1;align=center;verticalAlign=middle;resizable=0;points=[];strokeColor=#FF3333;" vertex="1" connectable="0" parent="u6Nlhj0dFVYCVf8Xmznz-35">
          <mxGeometry x="-0.4032" y="2" relative="1" as="geometry">
            <mxPoint as="offset" />
          </mxGeometry>
        </mxCell>
        <mxCell id="u6Nlhj0dFVYCVf8Xmznz-37" value="" style="endArrow=classic;html=1;rounded=0;strokeColor=#FF3333;" edge="1" parent="1">
          <mxGeometry width="50" height="50" relative="1" as="geometry">
            <mxPoint x="116" y="475" as="sourcePoint" />
            <mxPoint x="236" y="605" as="targetPoint" />
          </mxGeometry>
        </mxCell>
        <mxCell id="u6Nlhj0dFVYCVf8Xmznz-38" value="203.202.141.128/25&lt;div&gt;198.142.244.128/25&lt;/div&gt;" style="edgeLabel;html=1;align=center;verticalAlign=middle;resizable=0;points=[];strokeColor=#FF3333;" vertex="1" connectable="0" parent="u6Nlhj0dFVYCVf8Xmznz-37">
          <mxGeometry x="-0.4032" y="2" relative="1" as="geometry">
            <mxPoint x="13" y="23" as="offset" />
          </mxGeometry>
        </mxCell>
        <mxCell id="u6Nlhj0dFVYCVf8Xmznz-39" value="" style="endArrow=classic;html=1;rounded=0;strokeColor=#FF3333;" edge="1" parent="1">
          <mxGeometry width="50" height="50" relative="1" as="geometry">
            <mxPoint x="274" y="440" as="sourcePoint" />
            <mxPoint x="358" y="530" as="targetPoint" />
          </mxGeometry>
        </mxCell>
        <mxCell id="u6Nlhj0dFVYCVf8Xmznz-40" value="203.202.141.128/25&lt;div&gt;198.142.244.128/25&lt;/div&gt;" style="edgeLabel;html=1;align=center;verticalAlign=middle;resizable=0;points=[];strokeColor=#FF3333;" vertex="1" connectable="0" parent="u6Nlhj0dFVYCVf8Xmznz-39">
          <mxGeometry x="-0.4032" y="2" relative="1" as="geometry">
            <mxPoint x="30" y="25" as="offset" />
          </mxGeometry>
        </mxCell>
        <mxCell id="u6Nlhj0dFVYCVf8Xmznz-41" value="" style="endArrow=classic;html=1;rounded=0;strokeColor=#FF3333;" edge="1" parent="1">
          <mxGeometry width="50" height="50" relative="1" as="geometry">
            <mxPoint x="474" y="814" as="sourcePoint" />
            <mxPoint x="394" y="694" as="targetPoint" />
          </mxGeometry>
        </mxCell>
        <mxCell id="u6Nlhj0dFVYCVf8Xmznz-42" value="4.1.55.128/24&lt;div&gt;4.1.55.129/32&lt;/div&gt;" style="edgeLabel;html=1;align=center;verticalAlign=middle;resizable=0;points=[];strokeColor=#FF3333;" vertex="1" connectable="0" parent="u6Nlhj0dFVYCVf8Xmznz-41">
          <mxGeometry x="-0.4032" y="2" relative="1" as="geometry">
            <mxPoint x="-25" y="-25" as="offset" />
          </mxGeometry>
        </mxCell>
        <mxCell id="u6Nlhj0dFVYCVf8Xmznz-43" value="" style="endArrow=classic;html=1;rounded=0;strokeColor=#FF3333;" edge="1" parent="1">
          <mxGeometry width="50" height="50" relative="1" as="geometry">
            <mxPoint x="667" y="786" as="sourcePoint" />
            <mxPoint x="527" y="626" as="targetPoint" />
          </mxGeometry>
        </mxCell>
        <mxCell id="u6Nlhj0dFVYCVf8Xmznz-44" value="4.1.55.128/24&lt;div&gt;4.1.55.130/32&lt;/div&gt;" style="edgeLabel;html=1;align=center;verticalAlign=middle;resizable=0;points=[];strokeColor=#FF3333;direction=south;" vertex="1" connectable="0" parent="u6Nlhj0dFVYCVf8Xmznz-43">
          <mxGeometry x="-0.4032" y="2" relative="1" as="geometry">
            <mxPoint x="-14" y="-30" as="offset" />
          </mxGeometry>
        </mxCell>
        <mxCell id="u6Nlhj0dFVYCVf8Xmznz-50" value="&lt;b&gt;172.21.109.30 -&amp;nbsp;&lt;/b&gt;&lt;div&gt;&lt;b&gt;172.21.109.7 -&amp;nbsp;&lt;/b&gt;&lt;/div&gt;&lt;div&gt;&lt;b&gt;172.21.109.14 (TST Linux)&lt;/b&gt;&lt;/div&gt;&lt;div&gt;&lt;b&gt;172.21.109.15 (TST Windows)&lt;/b&gt;&lt;/div&gt;" style="ellipse;whiteSpace=wrap;html=1;" vertex="1" parent="1">
          <mxGeometry x="197" y="50" width="380" height="130" as="geometry" />
        </mxCell>
        <mxCell id="u6Nlhj0dFVYCVf8Xmznz-52" value="&lt;b&gt;172.21.109.30 -&amp;nbsp;&lt;/b&gt;&lt;div&gt;&lt;b&gt;172.21.109.7 -&amp;nbsp;&lt;/b&gt;&lt;/div&gt;&lt;div&gt;&lt;b&gt;172.21.109.14 (TST Linux)&lt;/b&gt;&lt;/div&gt;&lt;div&gt;&lt;b&gt;172.21.109.15 (TST Windows)&lt;/b&gt;&lt;/div&gt;" style="whiteSpace=wrap;html=1;aspect=fixed;" vertex="1" parent="1">
          <mxGeometry x="170" y="299" width="122" height="122" as="geometry" />
        </mxCell>
      </root>
    </mxGraphModel>
  </diagram>
</mxfile>
